# Blender 4.4.1
# www.blender.org
mtllib start.mtl
o start
v 1.500000 -0.750000 -0.150000
v 1.500000 0.750000 -0.150000
v 1.500000 -0.750000 0.150000
v 1.500000 0.750000 0.150000
v -1.500000 -0.750000 -0.150000
v -1.500000 0.750000 -0.150000
v -1.500000 -0.750000 0.150000
v -1.500000 0.750000 0.150000
v 0.050000 -1.500000 -0.150000
v 0.050000 -0.750000 -0.150000
v 0.050000 -1.500000 0.150000
v 0.050000 -0.750000 0.150000
v -0.050000 -1.500000 -0.150000
v -0.050000 -0.750000 -0.150000
v -0.050000 -1.500000 0.150000
v -0.050000 -0.750000 0.150000
vn 1.0000 -0.0000 -0.0000
vn -0.0000 -0.0000 1.0000
vn -1.0000 -0.0000 -0.0000
vn -0.0000 -0.0000 -1.0000
vn -0.0000 -1.0000 -0.0000
vn -0.0000 1.0000 -0.0000
vt 0.866772 0.568008
vt 0.777282 0.389169
vt 0.866716 0.389141
vt 0.777339 0.568036
vt 0.455322 0.389270
vt 0.455378 0.568137
vt 0.365888 0.389298
vt 0.365944 0.568165
vt 0.043928 0.389399
vt 0.777233 0.233555
vt 0.455479 0.890098
vt 0.866667 0.233527
vt 0.777205 0.144121
vt 0.866639 0.144093
vt 0.687772 0.144149
vt 0.777202 0.133389
vt 0.777174 0.043956
vt 0.866636 0.133361
vt 0.956069 0.133333
vt 0.365839 0.233684
vt 0.043984 0.568266
vt 0.366046 0.890126
vt 0.687769 0.133417
vt 0.866607 0.043928
vt 0.956072 0.144065
vt 0.455273 0.233656
s 0
usemtl マテリアル
f 2/1/1 3/2/1 1/3/1
f 4/4/2 7/5/2 3/2/2
f 8/6/3 5/7/3 7/5/3
f 6/8/4 1/9/4 5/7/4
f 12/10/5 1/3/5 3/2/5
f 4/11/6 6/8/6 8/6/6
f 10/12/1 11/13/1 9/14/1
f 12/15/2 15/16/2 11/13/2
f 16/17/3 13/18/3 15/16/3
f 14/19/4 9/14/4 13/18/4
f 15/16/5 9/14/5 11/13/5
f 14/20/5 7/5/5 5/7/5
f 2/1/1 4/4/1 3/2/1
f 4/4/2 8/6/2 7/5/2
f 8/6/3 6/8/3 5/7/3
f 6/8/4 2/21/4 1/9/4
f 12/10/5 10/12/5 1/3/5
f 4/11/6 2/22/6 6/8/6
f 10/12/1 12/10/1 11/13/1
f 12/15/2 16/23/2 15/16/2
f 16/17/3 14/24/3 13/18/3
f 14/19/4 10/25/4 9/14/4
f 15/16/5 13/18/5 9/14/5
f 14/20/5 16/26/5 7/5/5
