# Blender 4.4.1
# www.blender.org
mtllib target.mtl
o target
v 0.500000 -0.750000 -0.150000
v 0.500000 0.750000 -0.150000
v 0.500000 -0.750000 0.150000
v 0.500000 0.750000 0.150000
v -0.500000 -0.750000 -0.150000
v -0.500000 0.750000 -0.150000
v -0.500000 -0.750000 0.150000
v -0.500000 0.750000 0.150000
vn 1.0000 -0.0000 -0.0000
vn -0.0000 -0.0000 1.0000
vn -1.0000 -0.0000 -0.0000
vn -0.0000 -0.0000 -1.0000
vn -0.0000 -1.0000 -0.0000
vn -0.0000 1.0000 -0.0000
vt 0.371358 0.890625
vt 0.293233 0.500000
vt 0.371358 0.500000
vt 0.371358 0.031250
vt 0.631775 0.421875
vt 0.371358 0.421875
vt 0.709900 0.890625
vt 0.631775 0.500000
vt 0.709900 0.500000
vt 0.631775 0.890625
vt 0.371358 0.968750
vt 0.631775 0.968750
vt 0.293233 0.890625
vt 0.631775 0.031250
s 0
usemtl マテリアル.001
f 2/1/1 3/2/1 1/3/1
f 4/4/2 7/5/2 3/6/2
f 8/7/3 5/8/3 7/9/3
f 6/10/4 1/3/4 5/8/4
f 7/5/5 1/3/5 3/6/5
f 4/11/6 6/10/6 8/12/6
f 2/1/1 4/13/1 3/2/1
f 4/4/2 8/14/2 7/5/2
f 8/7/3 6/10/3 5/8/3
f 6/10/4 2/1/4 1/3/4
f 7/5/5 5/8/5 1/3/5
f 4/11/6 2/1/6 6/10/6
